<svg width="6" height="20" viewBox="0 0 6 20" fill="current" xmlns="http://www.w3.org/2000/svg">
  <path d="M3.0013 5.33317C4.28464 5.33317 5.33463 4.28317 5.33463 2.99984C5.33463 1.7165 4.28464 0.666504 3.0013 0.666504C1.71797 0.666504 0.667969 1.7165 0.667969 2.99984C0.667969 4.28317 1.71797 5.33317 3.0013 5.33317ZM3.0013 7.6665C1.71797 7.6665 0.667969 8.7165 0.667969 9.99984C0.667969 11.2832 1.71797 12.3332 3.0013 12.3332C4.28464 12.3332 5.33463 11.2832 5.33463 9.99984C5.33463 8.7165 4.28464 7.6665 3.0013 7.6665ZM3.0013 14.6665C1.71797 14.6665 0.667969 15.7165 0.667969 16.9998C0.667969 18.2832 1.71797 19.3332 3.0013 19.3332C4.28464 19.3332 5.33463 18.2832 5.33463 16.9998C5.33463 15.7165 4.28464 14.6665 3.0013 14.6665Z" fill="current" stroke="current"/>
</svg>